<?xml version="1.0" encoding="UTF-8" standalone="no"?>
<svg width="57" height="88" xmlns="http://www.w3.org/2000/svg" xmlns:xlink="http://www.w3.org/1999/xlink">
	<symbol id="suit" width="8" height="10">
		<path d="M 4 0 l 4 5 v 2 l -1 1 h -1 l -1 -1 l 1 3 h -4 l 1 -3 l -1 1 h -1 l -1 -1 v -2 z"></path>
	</symbol>
	<symbol id="rank" width="8" height="12">
		<path d="M 6 12 h -4 l -2 -2 v -2 h 2 v 2 h 4 v -3 h -4 l -2 -2 v -3 l 2 -2 h 4 l 2 2 v 8 z m 0 -7 v -3 h -4 v 3 z"></path>
	</symbol>
	<symbol id="index" width="57" height="88">
		<use xlink:href="#rank" x="6" y="6"></use>
		<use xlink:href="#suit" x="6" y="20"></use>
	</symbol>
	
	<rect x="1.5" y="1.5" width="54" height="85" fill="#fff"></rect>
	<path d="M 2 0 h 53 l 2 2 v 84 l -2 2 h -53 l -2 -2 v -84 z m 0 2 v 84 h 53 v -84 z"></path>
	<g style="fill: #000;">
		<use xlink:href="#index"></use>
		<use xlink:href="#index" transform="rotate(180, 28.5, 44)"></use>
		<use xlink:href="#suit" transform="translate(17, 11) scale(0.9)"></use>
		<use xlink:href="#suit" transform="translate(32.8, 11) scale(0.9)"></use>
		<use xlink:href="#suit" transform="translate(17, 30) scale(0.9)"></use>
		<use xlink:href="#suit" transform="translate(32.8, 30) scale(0.9)"></use>
		<use xlink:href="#suit" transform="translate(24.9, 39.5) scale(0.9)"></use>
		<g transform="rotate(180, 28.5, 44)">
			<use xlink:href="#suit" transform="translate(17, 11) scale(0.9)"></use>
			<use xlink:href="#suit" transform="translate(32.8, 11) scale(0.9)"></use>
			<use xlink:href="#suit" transform="translate(32.8, 30) scale(0.9)"></use>
			<use xlink:href="#suit" transform="translate(17, 30) scale(0.9)"></use>
		</g>
	</g>
</svg>